<svg xmlns="http://www.w3.org/2000/svg" version="1.1" xmlnsxlink="http://www.w3.org/1999/xlink" xmlnssvgjs="http://svgjs.dev/svgjs" width="1000" height="1000" viewBox="0 0 1000 1000"><rect width="1000" height="1000" fill="#ffffff"></rect><g transform="matrix(0.7,0,0,0.7,149.57575757575756,282.1265587044535)"><svg viewBox="0 0 396 247" data-background-color="#90adbb" preserveAspectRatio="xMidYMid meet" height="623" width="1000" xmlns="http://www.w3.org/2000/svg" xmlnsxlink="http://www.w3.org/1999/xlink"><g id="tight-bounds" transform="matrix(1,0,0,1,0.2400000000000091,-0.09999999999999432)"><svg viewBox="0 0 395.52 247.2" height="247.2" width="395.52"><g><svg></svg></g><g><svg viewBox="0 0 395.52 247.2" height="247.2" width="395.52"><g transform="matrix(1,0,0,1,75.54432,74.94905329426538)"><svg viewBox="0 0 244.43135999999998 97.30189341146921" height="97.30189341146921" width="244.43135999999998"><g><svg viewBox="0 0 244.43135999999998 97.30189341146921" height="97.30189341146921" width="244.43135999999998"><g><svg viewBox="0 0 244.43135999999998 97.30189341146921" height="97.30189341146921" width="244.43135999999998"><g><svg viewBox="0 0 244.43135999999998 97.30189341146921" height="97.30189341146921" width="244.43135999999998"><g id="textblocktransform"><svg viewBox="0 0 244.43135999999998 97.30189341146921" height="97.30189341146921" width="244.43135999999998" id="textblock"><g><svg viewBox="0 0 244.43135999999998 97.30189341146921" height="97.30189341146921" width="244.43135999999998"><g transform="matrix(1,0,0,1,0,0)"><svg width="244.43135999999998" viewBox="3.5 -36.5 119.44000244140625 47.54999923706055" height="97.30189341146921" data-palette-color="#f6f6f6"><path d="M6.45-29.75Q5.2-29.75 4.35-30.6 3.5-31.45 3.5-32.65L3.5-32.65Q3.5-33.9 4.35-34.75 5.2-35.6 6.45-35.6L6.45-35.6Q7.65-35.6 8.5-34.75 9.35-33.9 9.35-32.65L9.35-32.65Q9.35-31.45 8.5-30.6 7.65-29.75 6.45-29.75L6.45-29.75ZM8.9-6Q8.9-2.3 9.6-0.45L9.6-0.45Q8.55 0.6 7 0.6L7 0.6Q5.9 0.6 5.18-0.08 4.45-0.75 4.45-1.9L4.45-1.9 4.4-19.55Q4.4-23.3 3.7-25.15L3.7-25.15Q5-26.15 6.3-26.15L6.3-26.15Q7.45-26.15 8.15-25.5 8.85-24.85 8.85-23.7L8.85-23.7 8.9-6ZM26.85 0.7Q21.25 0.7 18.4-1.38 15.55-3.45 15.55-6.65L15.55-6.65Q15.55-9.75 18.55-9.75L18.55-9.75Q18.8-9.75 19.6-9.65L19.6-9.65Q19.45-9.05 19.45-8.3L19.45-8.3Q19.45-7.75 19.5-7.45L19.5-7.45Q19.7-4.7 21.77-3 23.85-1.3 27.4-1.3L27.4-1.3Q30.5-1.3 32.4-2.83 34.3-4.35 34.3-7.2L34.3-7.2Q34.3-9.05 33.45-10.45 32.6-11.85 31-13.03 29.4-14.2 26.55-15.8L26.55-15.8Q23.05-17.75 21.07-19.2 19.1-20.65 17.95-22.53 16.8-24.4 16.8-27L16.8-27Q16.8-31.2 19.85-33.27 22.9-35.35 27.65-35.35L27.65-35.35Q32.2-35.35 34.97-33.73 37.75-32.1 37.75-29.25L37.75-29.25Q37.75-26.95 35.45-26.75L35.45-26.75Q35.25-26.7 34.75-26.7L34.75-26.7Q34.15-26.7 33.85-26.8L33.85-26.8Q33.9-27.05 33.9-27.6L33.9-27.6Q33.9-28.4 33.75-29.05L33.75-29.05Q33.5-31.1 31.72-32.25 29.95-33.4 27.15-33.4L27.15-33.4Q24.65-33.4 22.87-32.25 21.1-31.1 21.1-28.5L21.1-28.5Q21.1-26.65 21.97-25.28 22.85-23.9 24.47-22.75 26.1-21.6 29.05-19.95L29.05-19.95Q32.15-18.3 34.22-16.8 36.3-15.3 37.55-13.25 38.8-11.2 38.8-8.55L38.8-8.55Q38.8-6.05 37.57-3.95 36.35-1.85 33.65-0.58 30.95 0.7 26.85 0.7L26.85 0.7ZM65.5-6Q65.5-2.5 66.2-0.45L66.2-0.45Q65.05 0.6 63.65 0.6L63.65 0.6Q62.5 0.6 61.77-0.08 61.05-0.75 61.05-1.9L61.05-1.9 61-15.2Q61-19.55 59.9-21.65 58.8-23.75 56.1-23.75L56.1-23.75Q54.4-23.75 52.87-22.53 51.35-21.3 50.37-18.65 49.4-16 49.4-12L49.4-12Q49.4-5.75 49.52-3.8 49.65-1.85 50.2-0.4L50.2-0.4Q49.1 0.6 47.6 0.6L47.6 0.6Q46.45 0.6 45.7-0.13 44.95-0.85 44.95-2.1L44.95-2.1 44.95-34.05Q44.9-35.25 45.6-35.88 46.3-36.5 47.4-36.5L47.4-36.5Q48.25-36.5 49.02-36.18 49.8-35.85 50.2-35.5L50.2-35.5Q49.75-34.1 49.6-32.18 49.45-30.25 49.4-26.9L49.4-26.9 49.35-20.5Q50.45-23.2 52.55-24.68 54.65-26.15 57.5-26.15L57.5-26.15Q65.5-26.15 65.5-15.8L65.5-15.8 65.5-6ZM82.94 0.65Q77.44 0.65 74.37-2.88 71.29-6.4 71.29-12.7L71.29-12.7Q71.29-19.05 74.37-22.6 77.44-26.15 82.94-26.15L82.94-26.15Q88.44-26.15 91.49-22.6 94.54-19.05 94.54-12.7L94.54-12.7Q94.54-6.4 91.49-2.88 88.44 0.65 82.94 0.65L82.94 0.65ZM82.94-1.25Q86.24-1.25 87.97-4.2 89.69-7.15 89.69-12.7L89.69-12.7Q89.69-18.35 87.97-21.3 86.24-24.25 82.94-24.25L82.94-24.25Q79.59-24.25 77.87-21.3 76.14-18.35 76.14-12.7L76.14-12.7Q76.14-7.15 77.87-4.2 79.59-1.25 82.94-1.25L82.94-1.25ZM114.24-26.15Q119.04-26.15 120.99-22.58 122.94-19 122.94-13.85L122.94-13.85Q122.94-6.95 120.14-3.15 117.34 0.65 112.34 0.65L112.34 0.65Q109.89 0.65 108.14-0.33 106.39-1.3 105.64-3.1L105.64-3.1 105.64 2.2Q105.64 7.35 106.39 10.05L106.39 10.05Q105.99 10.45 105.32 10.75 104.64 11.05 103.79 11.05L103.79 11.05Q102.64 11.05 101.89 10.4 101.14 9.75 101.14 8.6L101.14 8.6 101.19-19.9Q101.19-21.3 100.87-21.88 100.54-22.45 99.79-22.45L99.79-22.45Q98.84-22.45 98.49-21.75L98.49-21.75Q97.89-22.65 97.89-23.45L97.89-23.45Q97.89-24.55 98.77-25.25 99.64-25.95 101.09-25.95L101.09-25.95Q105.34-25.95 105.44-19.3L105.44-19.3Q106.64-22.55 108.84-24.35 111.04-26.15 114.24-26.15L114.24-26.15ZM111.29-1.9Q114.64-1.9 116.37-4.93 118.09-7.95 118.09-13.85L118.09-13.85Q118.09-18.2 117.04-20.83 115.99-23.45 112.99-23.45L112.99-23.45Q110.74-23.45 109.09-21.65 107.44-19.85 106.57-16.9 105.69-13.95 105.69-10.5L105.69-10.5Q105.69-6.45 106.94-4.17 108.19-1.9 111.29-1.9L111.29-1.9Z" opacity="1" transform="matrix(1,0,0,1,0,0)" fill="#000000" class="wordmark-text-0" data-fill-palette-color="primary" id="text-0"></path></svg></g></svg></g></svg></g></svg></g><g></g></svg></g></svg></g></svg></g><g><path d="M98.73 51.978A122.216 122.216 0 0 1 296.79 51.978L288.016 51.978A113.441 113.441 0 0 0 107.504 51.978L98.73 51.978M98.73 195.222A122.216 122.216 0 0 0 296.79 195.222L288.016 195.222A113.441 113.441 0 0 1 107.504 195.222L98.73 195.222" fill="#000000" stroke="transparent" data-fill-palette-color="tertiary"></path></g></svg></g><defs></defs></svg><rect width="395.52" height="247.2" fill="none" stroke="none" visibility="hidden"></rect></g></svg></g></svg>